<?xml version="1.0" encoding="utf-8"?>
<svg version="1.1" id="getty_logo" xmlns="http://www.w3.org/2000/svg" xmlns:xlink="http://www.w3.org/1999/xlink" x="0px" y="0px"
   width="431.5px" height="75.6px" viewBox="-82 359.4 431.5 75.6" enable-background="new -82 359.4 431.5 75.6"
   xml:space="preserve" style="fill: white;">
<path d="M-27.8,391c0.3-6,3.5-9.8,8.6-9.8c5.3,0,8.6,3.5,8.6,9.8H-27.8 M-0.6,398v-4.3c0-10.6-6.6-20.4-18.4-20.4
  c-12.1,0-19.4,9.1-19.4,23.2s7.3,23.2,18.9,23.2c8.6,0,14.6-2.8,18.6-9.1l-7.8-4.8c-2.8,3-5,5.3-10.1,5.3s-9.1-3.5-9.3-12.9h27.5
  C-0.6,398.2-0.6,398-0.6,398z" class="g" />
<path d="M62.1,426c1.5,0.3,3,0.3,4.5,0.3c3.8,0,5.8-1,7.1-3.5c1-2,1.8-3.5,1.8-5.3c0-1.5-0.8-3.5-1.3-5.3l-12.3-38h10.8l7.3,27.3
  h0.3l7.6-27.5h10.6l-14.1,44.9c-4.8,12.9-8.6,16.1-17.1,16.1c-2.5,0-3.8-0.3-5-0.3V426"/>
<path d="M6.9,409.1c0,6.3,3,10.3,10.8,10.3c3,0,5.5-0.3,8.3-0.8v-8.8c-1.5,0.3-3.3,0.8-4.8,0.8c-2.8,0-3.8-0.8-3.8-3v-25.2h19.9
  v26.5c0,6.3,3,10.3,10.8,10.3c3,0,5.5-0.3,8.3-0.8v-8.8c-1.5,0.3-3.3,0.8-4.8,0.8c-2.8,0-3.8-0.8-3.8-3v-25.2h8.8v-8.1H48v-14.6
  H37.4v14.9H17.5v-14.9H6.9L6.9,409.1"/>
<rect x="107" y="374.1" width="5" height="44.6"/>
<rect x="107" y="359.5" width="5" height="7.6"/>
<path d="M123.4,418.7v-44.6h5v6.8c4.5-4.8,7.8-7.6,14.9-7.6c5,0,9.6,3,10.8,8.1c4-4.8,8.3-8.1,14.9-8.1c7.8,0,11.8,4.3,11.8,12.1
  v33.3h-5v-34c0-5-2.8-7.6-7.8-7.6c-4,0-10.6,4.3-13.4,8.6v32.8h-5v-33.8c0-5-2.8-7.6-7.8-7.6c-4,0-10.6,4.3-13.1,8.6v32.8h-5.3"/>
<path d="M217.3,408.1c-4.5,4.5-10.3,7.3-15.1,7.3c-4.5,0-8.1-2.8-8.1-7.6c0-5.5,2.8-9.8,23.2-14.4V408.1 M223.1,418.7
  c-0.5-3-0.8-5.8-0.8-8.1v-23.4c0-9.8-4.8-13.9-14.9-13.9c-7.3,0-12.9,2.8-16.6,10.1l3.5,2c3.3-5.3,7.6-8.1,13.1-8.1
  c7.6,0,10.3,3,10.3,9.1v3c-18.6,4-28.7,6.3-28.7,18.6c0,7.3,5.3,11.6,12.3,11.6c6.8,0,10.8-2,16.4-6.3l0.8,5.3L223.1,418.7
  L223.1,418.7z"/>
<path d="M279.6,392.5c0-6,4-15.4,13.1-15.1c7.8,0,11.8,6,12.9,15.1H279.6 M310.6,396.5c0-13.9-5.8-23.4-17.9-23.4
  c-11.3,0-18.4,9.3-18.4,23.2c0,15.9,7.3,23.2,19.2,23.2c8.6,0,12.9-3,17.6-10.8l-4.3-2.3c-4.5,7.1-7.3,9.1-13.1,9.1
  c-10.1,0-14.4-8.8-14.4-18.9C279.3,396.5,310.6,396.5,310.6,396.5z"/>
<path d="M320.4,407.8c4.3,6,8.1,7.6,13.9,7.6s10.1-3.8,10.1-8.6c0-13.1-26.2-5.5-26.2-21.7c0-8.3,6.6-12.1,14.1-12.1
  s12.1,2.8,15.4,8.1l-4,2.8c-3-4-6.3-6.8-11.6-6.8c-5,0-8.8,2.5-8.8,7.8c0,10.8,26.2,4.5,26.2,21.9c0,8.1-7.3,12.6-15.4,12.6
  c-6.8,0-13.1-2.8-17.1-9.1L320.4,407.8"/>
<path d="M-55.3,388.7c0,4-3.3,7.3-7.3,7.3c-4.5,0-7.8-3.3-7.8-7.3s3.3-7.3,7.8-7.3C-58.6,381.4-55.3,384.7-55.3,388.7 M-81.5,421.4
  c-0.3,0.5-0.5,1.8-0.5,3.3c0.3,7.1,7.8,10.3,19.9,10.3c14.1,0,20.7-6.8,20.7-13.1c0-17.9-29.2-8.1-29.2-15.1c0-2.5,3.8-2.8,8.3-2.8
  c11.1,0,16.9-6,16.9-14.4c0-3.5-1-6-2.3-7.8c1.5-1,4.3-1,6.8-1v-7.6c-5-0.3-8.3,1.3-10.3,4c-3.3-2.5-7.6-4-11.3-4
  c-11.6,0-17.6,7.8-17.6,15.6c0,5.3,3,8.8,6.6,11.8c-2,0.5-7.1,3.8-7.1,8.1c0,5.8,7.8,8.1,17.6,8.6c8.1,0.5,11.8,2.5,11.8,5.5
  c0,2-2.5,4.8-9.3,5c-11.1,0.3-12.3-3-11.6-6.3L-81.5,421.4z"/>
<path d="M249.9,415.4c13.4,0,16.1,3.5,16.1,7.3c0,4.5-4.8,7.6-15.9,7.6c-9.3,0-13.6-3-13.6-7.3C236.8,418.9,239.8,415.4,249.9,415.4
   M271,372.3c-3.5,0-6.8,1.3-9.3,4c-2.8-1.8-6-3-10.3-3c-10.8,0-17.6,6.3-17.6,15.9c0,4.5,2.5,8.8,6.3,11.6c-3.3,0.8-6.6,3.8-6.6,7.6
  s2.8,5,5.8,5.8v0.3c-6.3,2.3-7.8,5.5-7.8,9.3c0,5.3,4,10.6,19.4,10.6s20.2-5.5,20.2-12.1c0-7.3-5.5-11.6-18.9-11.6
  c-12.1,0-13.9-1.3-13.9-3.8c0-1.5,1.3-3.3,4-4.3c2.3,0.8,4.3,1.3,7.3,1.3c9.3,0,17.1-4.5,17.1-15.6c0-4.3-1.3-6.8-3.3-9.3
  c1.8-1.8,4.8-2,7.1-2v-4.5h0.5L271,372.3L271,372.3z M239,388.7c0-7.1,4.3-11.3,11.6-11.3c7.1,0,11.6,3.5,11.6,11.3
  s-4.3,11.1-11.6,11.1C244.3,399.8,239,396.5,239,388.7z"/>
</svg>
